<?xml version="1.0" encoding="UTF-8"?>
<svg viewBox="0 0 800 320" xmlns="http://www.w3.org/2000/svg" style="max-width:100%; font-family: system-ui, sans-serif;">
  <defs>
    <marker id="arr-red" markerWidth="8" markerHeight="6" refX="8" refY="3" orient="auto"><path d="M0,0 L8,3 L0,6" fill="#ea4335"/></marker>
    <marker id="arr-green" markerWidth="8" markerHeight="6" refX="8" refY="3" orient="auto"><path d="M0,0 L8,3 L0,6" fill="#34a853"/></marker>
    <marker id="arr-blue" markerWidth="8" markerHeight="6" refX="8" refY="3" orient="auto"><path d="M0,0 L8,3 L0,6" fill="#4285f4"/></marker>
  </defs>

  <!-- Goals -->
  <rect x="40" y="30" width="180" height="50" rx="8" fill="#fce8e6" stroke="#ea4335" stroke-width="2"/>
  <text x="130" y="52" text-anchor="middle" font-size="12" font-weight="bold" fill="#c5221f">Ship v2.0</text>
  <text x="130" y="70" text-anchor="middle" font-size="10" fill="#666">status: blocked</text>

  <rect x="300" y="30" width="180" height="50" rx="8" fill="#e6f4ea" stroke="#34a853" stroke-width="1.5"/>
  <text x="390" y="52" text-anchor="middle" font-size="12" font-weight="bold" fill="#1e8e3e">Hire senior eng</text>
  <text x="390" y="70" text-anchor="middle" font-size="10" fill="#666">status: active</text>

  <rect x="40" y="140" width="180" height="50" rx="8" fill="#e6f4ea" stroke="#34a853" stroke-width="1.5"/>
  <text x="130" y="162" text-anchor="middle" font-size="12" font-weight="bold" fill="#1e8e3e">Improve onboarding</text>
  <text x="130" y="178" text-anchor="middle" font-size="10" fill="#666">status: active</text>

  <rect x="300" y="140" width="180" height="50" rx="8" fill="#e6f4ea" stroke="#34a853" stroke-width="1.5"/>
  <text x="390" y="162" text-anchor="middle" font-size="12" font-weight="bold" fill="#1e8e3e">Reduce churn</text>
  <text x="390" y="178" text-anchor="middle" font-size="10" fill="#666">status: active</text>

  <rect x="560" y="30" width="180" height="50" rx="8" fill="#e6f4ea" stroke="#34a853" stroke-width="1.5"/>
  <text x="650" y="52" text-anchor="middle" font-size="12" font-weight="bold" fill="#1e8e3e">Payment integration</text>
  <text x="650" y="70" text-anchor="middle" font-size="10" fill="#666">status: active</text>

  <rect x="560" y="140" width="180" height="50" rx="8" fill="#e8f0fe" stroke="#4285f4" stroke-width="1.5"/>
  <text x="650" y="162" text-anchor="middle" font-size="12" font-weight="bold" fill="#4285f4">PCI compliance</text>
  <text x="650" y="178" text-anchor="middle" font-size="10" fill="#666">status: active</text>

  <!-- Edges -->
  <line x1="300" y1="55" x2="225" y2="55" stroke="#ea4335" stroke-width="2" marker-end="url(#arr-red)"/>
  <text x="262" y="48" text-anchor="middle" font-size="9" fill="#ea4335">blocks</text>

  <line x1="220" y1="165" x2="295" y2="165" stroke="#34a853" stroke-width="2" marker-end="url(#arr-green)"/>
  <text x="258" y="158" text-anchor="middle" font-size="9" fill="#34a853">enables</text>

  <line x1="650" y1="90" x2="650" y2="135" stroke="#4285f4" stroke-width="2" marker-end="url(#arr-blue)"/>
  <text x="680" y="118" font-size="9" fill="#4285f4">requires</text>

  <!-- Legend -->
  <line x1="100" y1="250" x2="140" y2="250" stroke="#ea4335" stroke-width="2"/>
  <text x="150" y="254" font-size="10" fill="#666">blocks — must resolve first</text>
  <line x1="100" y1="272" x2="140" y2="272" stroke="#34a853" stroke-width="2"/>
  <text x="150" y="276" font-size="10" fill="#666">enables — makes possible</text>
  <line x1="100" y1="294" x2="140" y2="294" stroke="#4285f4" stroke-width="2"/>
  <text x="150" y="298" font-size="10" fill="#666">requires — prerequisite</text>
</svg>
